<?xml version="1.0" encoding="UTF-8"?>
<!DOCTYPE svg PUBLIC "-//W3C//DTD SVG 1.1//EN" "http://www.w3.org/Graphics/SVG/1.1/DTD/svg11.dtd">
<!-- Creator: CorelDRAW 2018 (64 Bit) -->
<svg xmlns="http://www.w3.org/2000/svg" xml:space="preserve" width="297mm" height="210mm" version="1.1" style="shape-rendering:geometricPrecision; text-rendering:geometricPrecision; image-rendering:optimizeQuality; fill-rule:evenodd; clip-rule:evenodd"
viewBox="0 0 29700 21000"
 xmlns:xlink="http://www.w3.org/1999/xlink">
 <defs>
  <style type="text/css">
   <![CDATA[
    .fil2 {fill:#4880B8;fill-rule:nonzero}
    .fil0 {fill:#5B5B5E;fill-rule:nonzero}
    .fil1 {fill:#5B8989;fill-rule:nonzero}
   ]]>
  </style>
 </defs>
 <g id="Camada_x0020_1">
  <metadata id="CorelCorpID_0Corel-Layer"/>
  <g id="_1946323422864">
   <g>
    <path class="fil0" d="M3310.82 11363.33l0 -2071.09 -889.75 889.73c-65.95,65.95 -145.04,98.86 -237.28,98.86 -95.59,0 -176.32,-32.91 -242.19,-98.86l-889.74 -889.73 0 2071.09c0,95.61 -32.12,175.48 -96.39,239.73 -64.23,64.26 -144.16,96.39 -239.71,96.39 -92.32,0 -171.37,-32.13 -237.28,-96.39 -65.95,-64.25 -98.86,-144.12 -98.86,-239.73l0 -2886.68c0,-65.89 18.93,-126.82 56.84,-182.89 37.86,-56 88.16,-97.17 150.79,-123.59 36.19,-16.44 80.69,-24.7 133.46,-24.7 92.19,0 169.65,31.35 232.32,93.91l1230.76 1230.8 1225.89 -1230.8c65.87,-65.87 146.56,-98.85 242.19,-98.85 39.54,0 80.73,8.25 123.59,24.71 65.87,26.4 116.92,68.43 153.23,126.05 36.19,57.68 54.37,119.47 54.37,185.36l0 2886.68c0,95.61 -32.16,175.48 -96.39,239.73 -64.27,64.26 -144.2,96.39 -239.75,96.39 -92.28,0 -171.37,-32.13 -237.24,-96.39 -65.99,-64.25 -98.86,-144.12 -98.86,-239.73z"/>
    <path class="fil0" d="M5457.77 11412.76c-293.32,-197.73 -510.82,-461.31 -652.47,-790.87 -46.18,-105.42 -81.57,-216.65 -106.26,-333.65 -24.72,-116.94 -37.07,-238.03 -37.07,-363.31 0,-187.84 27.17,-366.55 81.53,-536.3 54.41,-169.69 129.3,-325.4 224.94,-467.13 98.86,-144.96 215.02,-272.62 348.48,-383.07 133.46,-110.37 280.9,-200.19 442.4,-269.4 108.73,-46.09 221.57,-81.54 338.58,-106.27 116.91,-24.71 238.03,-37.07 363.3,-37.07 187.82,0 365.78,27.19 533.83,81.57 168.05,54.37 324.56,130.98 469.6,229.85 144.96,95.6 272.63,210.07 383.08,343.53 110.37,133.45 198.49,280.97 264.44,442.39 95.55,220.8 143.36,454.74 143.36,701.9 0,187.83 -27.2,365.79 -81.57,533.84 -54.36,168.07 -129.38,324.61 -224.89,469.57 -95.63,145.05 -210.95,272.73 -346.01,383.08 -135.17,110.45 -283.45,198.57 -444.87,264.46 -220.82,95.61 -453.15,143.35 -696.97,143.35 -181.27,0 -356.75,-26.35 -526.44,-79.1 -169.73,-52.66 -328.68,-128.5 -476.99,-227.37zm385.55 -2407.23l0 0c-184.59,121.95 -319.65,285.07 -405.33,489.37 -56.04,131.83 -84,275.19 -84,430.03 0,115.39 16.46,224.9 49.41,328.72 32.92,103.8 79.09,200.18 138.41,289.14 59.32,85.75 130.99,163.12 215.03,232.32 84.01,69.21 175.48,125.27 274.3,168.07 131.78,56.07 275.11,84.03 430.06,84.03 115.32,0 224.89,-16.46 328.71,-49.44 103.82,-32.89 200.21,-79.09 289.17,-138.39 85.64,-59.32 163.09,-130.13 232.32,-212.54 69.19,-82.33 125.19,-173.01 168.05,-271.87 56,-138.41 84.04,-281.76 84.04,-430.04 0,-115.32 -16.53,-225.67 -49.45,-331.18 -32.95,-105.42 -79.09,-200.97 -138.41,-286.69 -125.27,-184.51 -286.69,-319.58 -484.38,-405.33 -138.41,-55.98 -281.78,-84.02 -430.05,-84.02 -115.4,0 -225.78,16.53 -331.19,49.43 -105.5,32.97 -201.05,79.09 -286.69,138.39z"/>
    <path class="fil0" d="M18838.19 11699.45c-145.04,0 -280.1,-27.96 -405.32,-84.03 -125.27,-56 -235.64,-132.61 -331.16,-229.84 -95.62,-97.17 -170.56,-210.08 -224.93,-338.6 -54.37,-128.52 -81.53,-265.22 -81.53,-410.25l0 -1443.36c0,-224.05 59.28,-423.4 177.92,-598.1 102.1,-148.28 231.49,-263.6 388.03,-346.01 156.47,-82.33 323.76,-123.57 501.72,-123.57l1349.44 0c148.28,0 287.45,28.04 417.67,84.03 130.14,56.08 243.83,131.84 341.05,227.39 97.19,95.6 173.01,208.45 227.38,338.57 54.4,130.23 81.56,269.4 81.56,417.69 0,138.42 -27.16,271.88 -81.56,400.38 -54.37,128.52 -128.51,242.21 -222.42,341.07 -93.92,98.85 -206.84,177.94 -338.58,237.26 -131.86,59.32 -273.59,88.98 -425.1,88.98l-1730.04 0 0 375.67c0,75.83 21.37,145.03 64.23,207.59 36.23,49.43 79.89,89.81 131.02,121.1 51.05,31.35 107.89,46.97 170.53,46.97l2085.91 0c95.55,0 177.12,33.81 244.67,101.32 67.51,67.59 101.34,149.14 101.34,244.69 0,95.6 -33.83,176.32 -101.34,242.19 -67.55,65.97 -149.12,98.86 -244.67,98.86l-2095.82 0zm1374.17 -2130.41l0 0c55.96,0 107.05,-10.66 153.23,-32.14 46.09,-21.39 85.64,-49.43 118.64,-84.02 32.87,-34.59 58.44,-73.3 76.61,-116.16 18.06,-42.78 27.16,-85.64 27.16,-128.52 0,-98.85 -21.45,-174.62 -64.27,-227.38 -36.27,-49.43 -79.05,-89.74 -128.5,-121.09 -49.42,-31.28 -105.5,-46.96 -168.05,-46.96l-1364.26 0c-108.73,0 -199.41,37.91 -271.87,113.69 -72.5,75.84 -108.73,164.81 -108.73,266.91l0 375.67 1730.04 0z"/>
    <path class="fil0" d="M22495.96 11392.99c-243.91,-161.42 -435.84,-372.36 -575.85,-632.7 -140.09,-260.28 -210.07,-538.77 -210.07,-835.36 0,-194.39 26.32,-376.44 79.09,-546.19 52.65,-169.69 126.78,-325.39 222.42,-467.12 95.55,-144.96 210.06,-272.63 343.53,-383.08 133.45,-110.37 280.89,-198.49 442.39,-264.43 220.74,-95.56 453.06,-143.35 696.97,-143.35l1220.89 0c95.55,0 177.12,33.82 244.71,101.32 67.47,67.59 101.3,149.14 101.3,244.69 0,95.6 -33.83,177.15 -101.3,244.66 -67.59,67.59 -149.16,101.34 -244.71,101.34l-1220.89 0c-115.4,0 -224.13,16.52 -326.23,49.41 -102.18,33 -197.73,79.1 -286.69,138.42 -151.64,102.18 -270.23,233.16 -355.92,392.96 -85.72,159.89 -128.5,332.03 -128.5,516.54 0,112.06 16.46,219.2 49.41,321.3 32.92,102.18 79.09,197.71 138.41,286.69 59.32,88.98 130.14,168.07 212.55,237.25 82.33,69.21 173.01,125.29 271.87,168.07 131.78,56.06 273.47,84.02 425.1,84.02l1220.89 0c95.55,0 177.12,33.84 244.71,101.35 67.47,67.57 101.3,149.14 101.3,244.67 0,95.6 -33.83,177.17 -101.3,244.68 -67.59,67.57 -149.16,101.32 -244.71,101.32l-1220.89 0c-191.14,0 -368.26,-27.18 -531.35,-81.57 -163.14,-54.36 -318.85,-129.28 -467.13,-224.89z"/>
    <path class="fil0" d="M28864.71 8125.69c95.55,0 176.25,33.83 242.2,101.34 65.9,67.57 98.86,149.14 98.86,244.67l0 2881.75c0,95.6 -32.96,177.17 -98.86,244.68 -65.95,67.57 -146.65,101.32 -242.2,101.32 -95.62,0 -177.15,-33.75 -244.66,-101.32 -67.59,-67.51 -101.34,-149.08 -101.34,-244.68l0 -1092.39 -2085.92 0 0 1092.39c0,95.6 -33.83,177.17 -101.34,244.68 -67.59,67.57 -149.16,101.32 -244.67,101.32 -95.62,0 -177.19,-33.75 -244.7,-101.32 -67.59,-67.51 -101.3,-149.08 -101.3,-244.68l0 -2881.75c0,-95.53 33.71,-177.1 101.3,-244.67 67.51,-67.51 149.08,-101.34 244.7,-101.34 95.51,0 177.08,33.83 244.67,101.34 67.51,67.57 101.34,149.14 101.34,244.67l0 1102.28 2085.92 0 0 -1102.28c0,-95.53 33.75,-177.1 101.34,-244.67 67.51,-67.51 149.04,-101.34 244.66,-101.34z"/>
    <path class="fil0" d="M11863.79 9915.05c89,98.86 158.18,209.29 207.6,331.17 49.45,121.95 74.18,252.1 74.18,390.51 0,108.72 -16.54,213.38 -49.45,313.86 -32.96,100.57 -77.46,193.62 -133.47,279.28 -95.62,148.28 -222.41,263.68 -380.6,346.01 -158.18,82.41 -326.23,123.57 -504.19,123.57l-1942.59 0c-95.59,0 -176.32,-32.89 -242.19,-98.86 -65.95,-65.87 -98.86,-146.59 -98.86,-242.19l0 -2886.7c0,-98.86 32.91,-181.19 98.86,-247.14 65.87,-65.89 146.6,-98.87 242.19,-98.87l1942.59 0c220.74,0 420.15,61.02 598.11,182.89 144.96,95.61 259.52,222.44 343.53,380.6 84.04,158.19 126.07,326.24 126.07,504.19 0,138.42 -25.57,268.62 -76.62,390.49 -51.13,121.96 -119.52,232.32 -205.16,331.19zm-439.92 865.01l0 0c19.77,-42.8 29.68,-90.59 29.68,-143.33 0,-75.78 -20.65,-144.98 -61.79,-207.62 -41.27,-62.55 -96.4,-110.37 -165.62,-143.34 -46.18,-16.44 -100.55,-26.33 -163.1,-29.66l-790.88 0c-95.63,0 -177.16,-32.9 -244.67,-98.85 -67.59,-65.89 -101.34,-146.6 -101.34,-242.21 0,-95.55 33.75,-177.1 101.34,-244.69 67.51,-67.48 149.04,-101.32 244.67,-101.32l825.47 0c72.47,-6.57 136.7,-27.96 192.78,-64.25 49.45,-36.23 88.96,-81.57 118.64,-135.94 29.64,-54.38 44.5,-112.84 44.5,-175.48 0,-85.66 -21.49,-156.48 -64.27,-212.55 -36.31,-52.66 -80.77,-93.91 -133.46,-123.57 -52.77,-29.66 -112.09,-44.48 -177.96,-44.48l-1596.58 0 0 2199.62 1596.58 0c75.78,0 145.85,-20.55 210.08,-61.8 64.27,-41.16 109.53,-98.01 135.93,-170.53z"/>
    <g>
     <path class="fil0" d="M19755.51 12746.85c-20.09,60.64 -56.12,107.14 -108.02,139.5 -51.98,32.36 -117.22,48.59 -195.8,48.59l-242.4 0 214.45 -647.25 230.5 0c68.86,0 118.15,14.69 147.81,44.13 29.72,29.43 36.04,69.79 19.07,120.98 -20.65,62.4 -67.05,108.62 -139.08,138.66 38.32,10.55 63.1,30.08 74.45,58.45 11.34,28.45 11.02,60.72 -0.98,96.94zm-435.13 111.27l0 0 155.86 0c102.44,0 165.95,-37.1 190.5,-111.27 12.79,-38.59 10.24,-66.72 -7.53,-84.58 -17.81,-17.76 -57.84,-26.69 -120.24,-26.69l-144.84 0 -73.75 222.54zm99.18 -299.35l0 0 143.96 0c47.38,0 84.76,-7.58 112.15,-22.78 27.39,-15.11 46.97,-40.36 58.68,-75.7 10.51,-31.76 7.54,-55.71 -8.92,-71.7 -16.46,-16.09 -51.62,-24.14 -105.46,-24.14l-136.01 0 -64.4 194.32z"/>
     <path class="fil0" d="M20117.78 12875.33c-57.11,47.1 -111.55,70.63 -163.35,70.63 -105.69,0 -139.4,-57.7 -101.18,-173.07l101.55 -306.42 83.42 0 -100.39 302.89c-12.65,38.27 -14.97,65.75 -7.02,82.54 7.95,16.83 27.57,25.2 58.77,25.2 46.55,0 97.32,-25.02 152.52,-75.1l111.17 -335.53 83 0 -155.21 468.47 -83 0 19.72 -59.61z"/>
     <path class="fil0" d="M20387.65 12934.94l-83.42 0 155.21 -468.47 83.42 0 -155.21 468.47zm184.6 -557.23l0 0 -83.42 0 29.85 -90.02 83.42 0 -29.85 90.02z"/>
     <polygon class="fil0" points="20593.87,12934.94 20510.45,12934.94 20724.9,12287.69 20808.32,12287.69 "/>
     <path class="fil0" d="M21031.88 12878.86c-51.94,44.74 -103.92,67.1 -156,67.1 -61.24,0 -101.41,-21.76 -120.53,-65.33 -19.15,-43.57 -16.45,-102.3 8.05,-176.14 25.34,-76.53 64.17,-137.12 116.48,-181.76 52.26,-44.54 106.85,-66.86 163.63,-66.86 50.63,0 88.3,15.58 113.03,46.82l71.24 -215 83 0 -214.45 647.25 -83 0 18.55 -56.08zm26.04 -78.62l0 0 73.75 -222.5c-23.35,-37.99 -58.13,-56.96 -104.35,-56.96 -35.61,0 -69.19,15.39 -100.71,46.17 -31.52,30.74 -57.38,76.59 -77.56,137.54 -19.11,57.67 -23.57,101.46 -13.29,131.31 10.27,29.86 33.14,44.83 68.76,44.83 46.59,0 97.65,-26.79 153.4,-80.39z"/>
     <path class="fil0" d="M21302.92 12934.94l-83.42 0 155.21 -468.47 83.42 0 -155.21 468.47zm184.6 -557.23l0 0 -83.42 0 29.85 -90.02 83.42 0 -29.85 90.02z"/>
     <path class="fil0" d="M21644.54 12526.08c57.05,-46.82 111.41,-70.21 163.2,-70.21 105.7,0 139.46,57.56 101.33,172.65l-101.51 306.42 -83.41 0 100.34 -302.89c12.69,-38.27 14.92,-65.79 6.78,-82.53 -8.09,-16.84 -27.75,-25.21 -58.95,-25.21 -42.41,0 -93.05,25.02 -152.05,75.05l-111.18 335.58 -83.42 0 155.21 -468.47 83.42 0 -19.76 59.61z"/>
     <path class="fil0" d="M22320.2 12898.72c-49.89,150.7 -142.88,226.02 -278.85,226.02 -58.86,0 -101.09,-12.78 -126.61,-38.4 -25.48,-25.58 -31.11,-60.03 -16.74,-103.32l86.11 0c-17.02,51.24 8.98,76.86 77.84,76.86 38.83,0 72.4,-10.69 100.67,-31.99 28.32,-21.39 52.78,-63.29 73.42,-125.64l7.77 -23.39c-51.94,44.74 -103.93,67.1 -156.01,67.1 -61.23,0 -101.41,-21.76 -120.52,-65.33 -19.16,-43.57 -16.46,-102.3 8.05,-176.14 25.34,-76.53 64.16,-137.12 116.47,-181.76 52.27,-44.54 106.86,-66.86 163.63,-66.86 50.64,0 88.3,15.58 113.04,46.82l11.99 -36.22 83.01 0 -143.27 432.25zm-50.35 -98.48l0 0 73.74 -222.5c-23.34,-37.99 -58.12,-56.96 -104.34,-56.96 -35.62,0 -69.19,15.39 -100.71,46.17 -31.53,30.74 -57.38,76.59 -77.56,137.54 -19.12,57.67 -23.58,101.46 -13.3,131.31 10.28,29.86 33.15,44.83 68.77,44.83 46.59,0 97.64,-26.79 153.4,-80.39z"/>
     <path class="fil0" d="M22853.16 12935.82c-19.44,3.49 -39.89,5.25 -61.38,5.25 -34.13,0 -57.09,-6.09 -68.95,-18.31 -11.86,-12.19 -16.51,-27.86 -14,-46.97 2.51,-19.15 9.21,-45.19 20.14,-78.21l88.07 -265.78 -57.85 0 21.67 -65.33 57.84 0 38.64 -116.57 82.95 0 -38.59 116.57 75.93 0 -21.66 65.33 -75.94 0 -89.51 270.2c-10.64,32.08 -13.34,52.5 -8.13,61.19 5.2,8.65 14.87,13.02 29.01,13.02 14.42,0 28.64,-1.21 42.69,-3.53l-20.93 63.14z"/>
     <path class="fil0" d="M23141.68 12526.08c57.06,-46.82 111.41,-70.21 163.21,-70.21 105.69,0 139.45,57.56 101.32,172.65l-101.5 306.42 -83.42 0 100.34 -302.89c12.7,-38.27 14.92,-65.79 6.79,-82.53 -8.09,-16.84 -27.76,-25.21 -58.96,-25.21 -42.41,0 -93.05,25.02 -152.05,75.05l-111.18 335.58 -83.41 0 214.45 -647.25 83.41 0 -79 238.39z"/>
     <path class="fil0" d="M23621.12 12945.96c-68.86,0 -117.08,-21.53 -144.56,-64.68 -27.53,-43.11 -28.5,-103.23 -2.93,-180.32 25.39,-76.53 65.47,-136.52 120.29,-179.95 54.92,-43.42 114.95,-65.14 180.32,-65.14 66.82,0 113.08,21.39 138.85,64.03 25.71,42.68 25.66,102.99 -0.19,181.06l-6.56 19.85 -352.73 0c-14.41,54.13 -12.84,94.31 4.84,120.48 17.66,26.23 45.75,39.34 84.35,39.34 29.1,0 57.88,-7.44 86.16,-22.27 28.31,-14.88 47.6,-36.04 57.88,-63.43l86.07 0c-22.46,48.31 -56.63,85.51 -102.57,111.74 -45.9,26.18 -95.65,39.29 -149.22,39.29zm219.01 -290.52l0 0c8.14,-45.01 4.19,-78.77 -12,-101.09 -16.13,-22.36 -41.24,-33.57 -75.37,-33.57 -33.29,0 -65.51,11.11 -96.72,33.34 -31.19,22.22 -57.56,55.99 -79.04,101.32l263.13 0z"/>
     <path class="fil0" d="M24399.83 12531.8l-133.54 403.14 -83 0 133.54 -403.14 -68.87 0 21.67 -65.33 68.86 0 13.77 -41.48c32.74,-98.9 92.86,-148.37 180.27,-148.37 26.79,0 46.92,1.77 60.5,5.3l-24 72.4c-15.53,-2.88 -31.8,-4.42 -48.82,-4.42 -20.37,0 -37.34,5.72 -50.96,17.02 -13.58,11.35 -25.02,30.97 -34.32,58.96l-13.43 40.59 88.76 0 -21.67 65.33 -88.76 0z"/>
     <path class="fil0" d="M24736.38 12875.33c-57.1,47.1 -111.55,70.63 -163.35,70.63 -105.69,0 -139.4,-57.7 -101.18,-173.07l101.55 -306.42 83.42 0 -100.34 302.89c-12.7,38.27 -15.02,65.75 -7.07,82.54 8,16.83 27.57,25.2 58.77,25.2 46.55,0 97.32,-25.02 152.52,-75.1l111.18 -335.53 82.99 0 -155.21 468.47 -83 0 19.72 -59.61z"/>
     <path class="fil0" d="M25104.41 12935.82c-19.43,3.49 -39.89,5.25 -61.38,5.25 -34.12,0 -57.1,-6.09 -68.95,-18.31 -11.86,-12.19 -16.51,-27.86 -14,-46.97 2.51,-19.15 9.21,-45.19 20.13,-78.21l88.07 -265.78 -57.84 0 21.67 -65.33 57.84 0 38.64 -116.57 82.95 0 -38.59 116.57 75.93 0 -21.67 65.33 -75.93 0 -89.51 270.2c-10.64,32.08 -13.34,52.5 -8.13,61.19 5.21,8.65 14.88,13.02 29.01,13.02 14.41,0 28.64,-1.21 42.69,-3.53l-20.93 63.14z"/>
     <path class="fil0" d="M25490.49 12875.33c-57.11,47.1 -111.56,70.63 -163.35,70.63 -105.69,0 -139.4,-57.7 -101.18,-173.07l101.55 -306.42 83.42 0 -100.34 302.89c-12.7,38.27 -15.02,65.75 -7.07,82.54 7.99,16.83 27.57,25.2 58.77,25.2 46.54,0 97.32,-25.02 152.52,-75.1l111.17 -335.53 83 0 -155.21 468.47 -83 0 19.72 -59.61z"/>
     <path class="fil0" d="M26050.23 12542.41c-10.65,-3.54 -27.02,-5.31 -49.06,-5.31 -42.4,0 -86.11,22.23 -131.17,66.68l-109.69 331.16 -83.41 0 155.2 -468.47 83.43 0 -21.67 65.33c51.84,-50.59 100.8,-75.93 147.02,-75.93 11.77,0 24.04,1.21 36.83,3.53l-27.48 83.01z"/>
     <path class="fil0" d="M26173.45 12945.96c-68.87,0 -117.04,-21.53 -144.56,-64.68 -27.53,-43.11 -28.46,-103.23 -2.94,-180.32 25.35,-76.53 65.48,-136.52 120.3,-179.95 54.86,-43.42 114.94,-65.14 180.31,-65.14 66.82,0 113.09,21.39 138.85,64.03 25.71,42.68 25.66,102.99 -0.19,181.06l-6.6 19.85 -352.73 0c-14.42,54.13 -12.79,94.31 4.88,120.48 17.67,26.23 45.8,39.34 84.3,39.34 29.2,0 57.94,-7.44 86.21,-22.27 28.31,-14.88 47.61,-36.04 57.89,-63.43l86.07 0c-22.46,48.31 -56.64,85.51 -102.58,111.74 -45.85,26.18 -95.64,39.29 -149.21,39.29zm219 -290.52l0 0c8.14,-45.01 4.14,-78.77 -11.95,-101.09 -16.18,-22.36 -41.29,-33.57 -75.41,-33.57 -33.3,0 -65.52,11.11 -96.72,33.34 -31.2,22.22 -57.57,55.99 -79.05,101.32l263.13 0z"/>
     <path class="fil0" d="M26902.63 12935.82c-19.44,3.49 -39.85,5.25 -61.33,5.25 -34.13,0 -57.14,-6.09 -69,-18.31 -11.86,-12.19 -16.51,-27.86 -14,-46.97 2.51,-19.15 9.21,-45.19 20.13,-78.21l88.07 -265.78 -57.84 0 21.67 -65.33 57.84 0 38.59 -116.57 83.05 0 -38.64 116.57 75.93 0 -21.67 65.33 -75.93 0 -89.51 270.2c-10.65,32.08 -13.34,52.5 -8.14,61.19 5.21,8.65 14.89,13.02 29.02,13.02 14.41,0 28.69,-1.21 42.69,-3.53l-20.93 63.14z"/>
     <path class="fil0" d="M27320.83 12455.87c66.82,0 113.09,21.39 138.85,64.03 25.71,42.68 25.66,102.99 -0.19,181.06 -25.71,77.65 -65.65,137.91 -119.69,180.78 -54.07,42.78 -114.52,64.22 -181.34,64.22 -66.54,0 -112.66,-21.44 -138.33,-64.22 -25.71,-42.87 -25.67,-103.13 0.09,-180.78 25.86,-78.07 65.75,-138.38 119.78,-181.06 54.03,-42.64 114.3,-64.03 180.83,-64.03zm-140.75 424.76l0 0c39.71,0 76.96,-15.12 111.69,-45.29 34.74,-30.13 61.94,-74.95 81.65,-134.38 19.81,-59.8 22.32,-104.76 7.58,-134.89 -14.74,-30.22 -41.94,-45.29 -81.65,-45.29 -39.75,0 -77,15.07 -111.73,45.29 -34.69,30.13 -61.94,75.09 -81.75,134.89 -19.71,59.43 -22.17,104.25 -7.48,134.38 14.74,30.17 41.98,45.29 81.69,45.29z"/>
     <polygon class="fil0" points="27798.74,12934.94 27715.33,12934.94 27929.77,12287.69 28013.19,12287.69 "/>
     <path class="fil0" d="M28004.96 12934.94l-83.42 0 155.21 -468.47 83.42 0 -155.21 468.47zm184.6 -557.23l0 0 -83.42 0 29.85 -90.02 83.42 0 -29.85 90.02z"/>
     <path class="fil0" d="M28358.81 12531.8l-133.54 403.14 -83 0 133.54 -403.14 -68.87 0 21.68 -65.33 68.86 0 13.72 -41.48c32.78,-98.9 92.9,-148.37 180.31,-148.37 26.79,0 46.92,1.77 60.5,5.3l-23.99 72.4c-15.53,-2.88 -31.76,-4.42 -48.87,-4.42 -20.28,0 -37.3,5.72 -50.87,17.02 -13.67,11.35 -25.11,30.97 -34.36,58.96l-13.44 40.59 88.76 0 -21.66 65.33 -88.77 0z"/>
     <path class="fil0" d="M28574.37 12945.96c-68.86,0 -117.08,-21.53 -144.56,-64.68 -27.52,-43.11 -28.5,-103.23 -2.93,-180.32 25.39,-76.53 65.47,-136.52 120.29,-179.95 54.92,-43.42 114.94,-65.14 180.32,-65.14 66.82,0 113.08,21.39 138.85,64.03 25.71,42.68 25.66,102.99 -0.19,181.06l-6.56 19.85 -352.73 0c-14.41,54.13 -12.83,94.31 4.84,120.48 17.66,26.23 45.75,39.34 84.34,39.34 29.11,0 57.89,-7.44 86.16,-22.27 28.32,-14.88 47.62,-36.04 57.89,-63.43l86.07 0c-22.46,48.31 -56.63,85.51 -102.57,111.74 -45.9,26.18 -95.65,39.29 -149.22,39.29zm219.01 -290.52l0 0c8.14,-45.01 4.19,-78.77 -11.99,-101.09 -16.14,-22.36 -41.25,-33.57 -75.38,-33.57 -33.29,0 -65.52,11.11 -96.71,33.34 -31.2,22.22 -57.57,55.99 -79.05,101.32l263.13 0z"/>
     <path class="fil0" d="M28991.32 12934.94l-90.53 0 29.99 -90.53 90.53 0 -29.99 90.53zm168.09 -507.29l0 0 -131.96 346.12 -56.08 0 97.47 -346.12 46.4 -139.96 90.53 0 -46.36 139.96z"/>
    </g>
    <path class="fil1" d="M16155.94 11118.25c-1.43,-1.48 -2.66,-3.05 -4.12,-4.52 -17.19,-17.18 -35.29,-32.13 -54.28,-44.94 18.64,12.67 36.4,27.46 53.3,44.35l5.1 5.11z"/>
    <path class="fil1" d="M18163.84 13662.74c-59.8,48.94 -129.05,74.42 -207.62,76.66 78.69,-1.27 147.99,-26.62 207.62,-76.66z"/>
    <path class="fil1" d="M16097.54 11068.79c-55.94,-38.04 -119.72,-57.06 -191.38,-57.02 -4.67,0 -9.16,0.46 -13.76,0.62l14.75 0c71.24,0 134.69,18.82 190.39,56.4z"/>
    <path class="fil1" d="M17945.63 13739.77c0.74,0.01 1.43,-0.08 2.17,-0.08 -2.86,0.02 -5.61,-0.24 -8.44,-0.29 2.11,0.06 4.14,0.34 6.27,0.37z"/>
    <path class="fil1" d="M17949.92 13739.76c2.14,-0.02 4.18,-0.3 6.3,-0.36 -2.83,0.05 -5.57,0.31 -8.42,0.29 0.72,0 1.4,0.08 2.12,0.07z"/>
    <path class="fil1" d="M17939.36 13739.4c-78.54,-2.26 -147.75,-27.71 -207.49,-76.53 59.6,49.96 128.83,75.3 207.49,76.53z"/>
    <g>
     <path class="fil2" d="M14463.98 14136.04c-1234.94,0 -2236.06,-1001.12 -2236.06,-2236.06 0,-67.69 4.03,-134.38 9.94,-200.53l-667.47 0c-4.55,66.33 -7.68,133.04 -7.68,200.53 0,1602.33 1298.94,2901.27 2901.27,2901.27 1113.41,0 2079.8,-627.51 2566.21,-1547.86l-499.42 -499.42c-335.56,811.18 -1134.36,1382.07 -2066.79,1382.07z"/>
     <path class="fil2" d="M12925.55 7690.55c288.93,0 523.16,-241.79 523.16,-540.06 0,-298.28 -234.23,-540.07 -523.16,-540.07 -288.93,0 -523.16,241.79 -523.16,540.07 0,298.27 234.23,540.06 523.16,540.06z"/>
     <path class="fil2" d="M18591.92 12755.25c-67.63,-67.61 -149.23,-101.37 -244.67,-101.35 -95.57,-0.01 -177.12,33.8 -244.66,101.35l-82.05 82.04 -72.77 72.78 -1791.83 -1791.82 -5.1 -5.11c-16.9,-16.89 -34.66,-31.68 -53.3,-44.35 -55.7,-37.58 -119.15,-56.4 -190.39,-56.4l-14.75 0 -2867 0c-95.6,0 -177.17,33.75 -244.68,101.34 -67.57,67.47 -101.32,149.04 -101.32,244.67 0,95.51 33.75,176.23 101.32,242.19 67.51,65.87 149.08,98.86 244.68,98.86l2740.1 0 1937.21 1937.22c9.44,9.43 19.2,18.06 29.16,26.2 59.74,48.82 128.95,74.27 207.49,76.53 2.83,0.05 5.58,0.31 8.44,0.29 2.85,0.02 5.59,-0.24 8.42,-0.29 78.57,-2.24 147.82,-27.72 207.62,-76.66 9.91,-8.1 19.61,-16.7 29,-26.09l320.15 -320.15 75.42 -75.42c67.55,-67.55 101.9,-148.56 103.1,-242.91 1.1,-94.38 -32.06,-175.38 -99.59,-242.92z"/>
    </g>
    <path class="fil0" d="M12566.34 11325.96l0 -3110.67c0,-103.12 35.29,-191.17 105.97,-264.1 70.54,-72.87 155.84,-109.4 255.83,-109.4 99.87,0 184.28,36.53 253.24,109.4 68.88,72.93 103.38,160.98 103.38,264.1l0 3110.67c0,103.2 -34.5,191.25 -103.38,264.12 -68.96,72.94 -153.37,109.37 -253.24,109.37 -99.99,0 -185.29,-36.43 -255.83,-109.37 -70.68,-72.87 -105.97,-160.92 -105.97,-264.12z"/>
    <path class="fil0" d="M17499.69 7951.19c70.59,72.93 105.97,160.98 105.97,264.1 0,103.2 -35.38,191.25 -105.97,264.12 -70.63,72.94 -155.92,109.38 -255.83,109.38l-1152.61 0 0 2742.51c0,103.21 -34.46,190.33 -103.34,261.44 -69,71.21 -153.38,106.71 -253.29,106.71 -99.95,0 -185.24,-35.5 -255.83,-106.71 -70.67,-71.11 -105.97,-158.23 -105.97,-261.44l0 -2742.51 -1152.56 0c-99.99,0 -184.41,-36.44 -253.29,-109.38 -68.96,-72.87 -103.37,-160.92 -103.37,-264.12 0,-103.12 34.41,-191.17 103.37,-264.1 68.88,-72.87 153.3,-109.4 253.29,-109.4l3023.6 0c99.91,0 185.2,36.53 255.83,109.4z"/>
   </g>
  </g>
 </g>
</svg>
